<?xml version="1.0" encoding="UTF-8"?>
<svg width="112px" height="112px" viewBox="0 0 112 112" version="1.1" xmlns="http://www.w3.org/2000/svg" xmlns:xlink="http://www.w3.org/1999/xlink">
    <title>Python_logo_and_wordmark</title>
    <defs>
        <linearGradient x1="0.079537951%" y1="9.14856261e-08%" x2="74.4819858%" y2="64.1103734%" id="linearGradient-1">
            <stop stop-color="#5A9FD4" offset="0%"></stop>
            <stop stop-color="#306998" offset="100%"></stop>
        </linearGradient>
        <linearGradient x1="49.9999998%" y1="82.2756107%" x2="23.7804724%" y2="44.914431%" id="linearGradient-2">
            <stop stop-color="#FFD43B" offset="0%"></stop>
            <stop stop-color="#FFE873" offset="100%"></stop>
        </linearGradient>
    </defs>
    <g id="Page-1" stroke="none" stroke-width="1" fill="none" fill-rule="evenodd">
        <g id="Python_logo_and_wordmark" fill-rule="nonzero">
            <path d="M55.510156,0.394451016 C50.926503,0.415560835 46.549217,0.803020772 42.697656,1.47852181 C31.35144,3.46528664 29.291407,7.62375575 29.291406,15.2926812 L29.291406,25.4209998 L56.103906,25.4209998 L56.103906,28.797106 L29.291406,28.797106 L19.228906,28.797106 C11.436447,28.797106 4.6131468,33.4393742 2.4789058,42.2705573 C0.0170858,52.3931431 -0.0921093,58.7098013 2.4789058,69.2794069 C4.3848341,77.1470124 8.936449,82.7528582 16.728906,82.7528582 L25.947656,82.7528582 L25.947656,70.6112653 C25.947656,61.839681 33.6048,54.1024177 42.697656,54.1024157 L69.478906,54.1024157 C76.933857,54.1024157 82.885156,48.0185718 82.885156,40.5979909 L82.885156,15.2926812 C82.885156,8.09064609 76.755176,2.68051235 69.478906,1.47852181 C64.872919,0.718581692 60.093809,0.373341196 55.510156,0.394451016 Z M41.010156,8.54046881 C43.779703,8.54046881 46.041406,10.8187728 46.041406,13.6201148 C46.041406,16.4115275 43.779703,18.6687874 41.010156,18.6687874 C38.23068,18.6687874 35.978906,16.4115265 35.978906,13.6201148 C35.978906,10.8187738 38.23068,8.54046881 41.010156,8.54046881 Z" id="path1948" fill="url(#linearGradient-1)"></path>
            <path d="M86.228906,28.797106 L86.228906,40.5979909 C86.228906,49.7470578 78.403011,57.4475475 69.478906,57.4475485 L42.697656,57.4475485 C35.361823,57.4475485 29.291406,63.6704697 29.291406,70.9519732 L29.291406,96.25728 C29.291406,103.459316 35.609994,107.695473 42.697656,109.761705 C51.184987,112.23523 59.323893,112.682258 69.478906,109.761705 C76.229061,107.82461 82.885159,103.926198 82.885156,96.25728 L82.885156,86.1289644 L56.103906,86.1289644 L56.103906,82.7528582 L82.885156,82.7528582 L96.291406,82.7528582 C104.08387,82.7528582 106.98766,77.3655512 109.69765,69.2794069 C112.49698,60.9548473 112.37787,52.9494342 109.69765,42.2705573 C107.77187,34.5817662 104.09378,28.797106 96.291406,28.797106 L86.228906,28.797106 Z M71.166406,92.8811768 C73.945884,92.8811768 76.197656,95.1384396 76.197656,97.9298464 C76.197656,100.731184 73.945881,103.009492 71.166406,103.009492 C68.396856,103.009492 66.135156,100.731184 66.135156,97.9298464 C66.135156,95.1384396 68.396853,92.8811768 71.166406,92.8811768 Z" id="path1950" fill="url(#linearGradient-2)"></path>
        </g>
    </g>
</svg>