<svg xmlns="http://www.w3.org/2000/svg" width="48" height="48"><path d="M36 22H12c-1.102 0-2-.898-2-2V8c0-2.2 1.8-4 4-4h20c2.2 0 4 1.8 4 4v12c0 1.102-.898 2-2 2zm0-2v1zM14 6c-1.102 0-2 .898-2 2v12h24V8c0-1.102-.898-2-2-2zm0 0" fill="#5e35b1"/><path d="M16 22s1.3-4.898 2-8.5c.5-2.398 2.7-4.5 6-4.5s5.5 2.102 6 4.5c.5 2.602.898 4.102 2 8.5" fill="#311b92"/><path d="M11 33l3-11c1.102-3.898 5-7 10-7s8.898 3.102 10 7c1.2 4 3 11 3 11" fill="#7e57c2"/><path d="M24 23c-7.2 0-13 4.7-13 10.5S16.8 44 24 44s13-4.7 13-10.5S31.2 23 24 23zm0 0" fill="#5e35b1"/><path d="M35 33.5c0-4.7-4.898-8.5-11-8.5s-11 3.8-11 8.5S17.898 42 24 42s11-3.8 11-8.5zm0 0" fill="#ffc107"/><path d="M27 29c0-1.105-1.344-2-3-2s-3 .895-3 2 1.344 2 3 2 3-.895 3-2zm0 0" fill="#fff176"/></svg>